<?xml version="1.0" encoding="UTF-8"?>
<svg id="a" data-name="Layer 1" xmlns="http://www.w3.org/2000/svg" width="511.992" height="508.418" viewBox="0 0 511.992 508.418">
  <path d="m221.404,30.391c-.085-.681-.214-1.318-.387-1.911-2.216-.672-5.025-.801-8.234-.325-1.753.258-3.368.598-4.804,1.01-8.873,2.524-18.304,9.338-26.927,18.79l38.402-5.499c1.689-4.486,2.383-8.606,1.95-12.065Z" fill="none" stroke-width="0"/>
  <g>
    <path d="m214.134,111.067c.012.006.024.013.036.02,4.117-5.435,7.622-9.123,11.336-11.424,1.154-.737,2.601-1.252,4.239-1.492,3.452-.513,7.263.598,10.469,3.037,1.688,1.283,3.01,2.804,3.888,4.407.531.317,1.054.655,1.558,1.038.073.055.138.115.21.171,4.891-4.613,9.537-7.208,14.075-7.878l.511-.075.516.022c5.118.227,9.19,3.339,11.482,7.223,2.413,1.39,4.339,3.468,5.636,5.799,3.561-5.75,13.882-20.413,27.561-22.431,4.158-.61,8.023.331,11.18,2.73,1.559,1.185,2.872,2.694,3.947,4.461.513.298,1.017.619,1.498.985,2.456,1.867,4.325,4.508,5.556,7.769,6.639-17.516,15.324-37.49,25.694-59.046l-111.88,16.02c-6.473,12.892-17.185,27.545-33.399,43.008.877.402,1.717.891,2.493,1.48,1.546,1.175,2.701,2.61,3.393,4.176Z" fill="#eeb2ca" stroke-width="0"/>
    <path d="m480.999,40.08c-4.021-5.968-10.028-9.391-16.481-9.391h0c-.859,0-1.741.059-2.622.176l-70.622,10.112c-7.221,13.512-13.427,25.457-18.705,35.834.755-.249,1.496-.453,2.204-.558l.5-.074.504.02c9.085,0,16.893,11.165,17.841,14.315,6.753-9.866,15.331-17.734,24.577-19.098,3.946-.583,7.603.301,10.569,2.556,1.506,1.145,10.144,7.965,11.606,17.195.219,1.383.234,2.82.186,4.374-.134,3.594-.834,7.425-2.07,11.309,3.965-.237,13.725,4.241,14.931,16.646-6.997,14.751-25.054,33.884-43.028,36.538-8.557,1.259-15.96-1.356-20.666-6.892-5.529,6.069-11.432,9.429-18.181,10.425-6.207.911-14.466-.582-22.451-10.374-1.356-1.074-2.718-2.349-4.077-3.853-1.724,3.11-3.387,6.334-5.006,9.73l-.818,3.263-.305.577c-2.195,4.157-5.065,5.385-7.085,5.685-.389.057-.78.085-1.171.085-1.862,0-3.715-.644-5.324-1.867-1.413-1.074-4.83-4.978-5.445-5.445-1.65-1.255-3.001-3.091-3.926-5.233-7.37,10.723-16.244,17.3-25.314,18.638-5.659.833-10.623-1.014-14.096-4.995-4.828,4.433-9.818,7.163-14.474,7.849-1.32.193-2.584.219-3.863.072-4.905-.482-16.819-8.029-17.836-16.219-3.405,6.034-6.49,12.136-8.848,17.716l-.315.749-.523.621c-1.367,1.63-3.243,2.693-5.281,2.994-2.221.323-4.503-.302-6.435-1.771-1.41-1.071-4.824-4.974-5.447-5.447-2.085-1.584-3.685-4.082-4.533-6.949-2.909,5.072-5.64,10.064-7.964,14.627l-.278.547-.395.472c-1.366,1.63-3.276,2.698-5.379,3.01-.385.057-.77.085-1.156.085-1.846,0-3.686-.64-5.285-1.855-1.415-1.076-6.101-5.979-6.409-6.277-.671,1.756-1.429,3.541-2.33,5.378-6.243,12.784-20.627,28.769-40.607,31.717-1.794.263-3.569.397-5.279.397-6.124,0-11.562-1.674-15.724-4.841-1.815-1.379-3.365-3.022-4.64-4.891-.269-.186-.547-.359-.806-.557-4.782-3.632-7.75-9.079-8.584-15.752-1.545-12.359,4.065-28.425,16.676-47.749l.391-.526c1.99-2.364,4.452-3.822,7.122-4.215,3.459-.516,7.064.657,10.14,3.32,1.154,1,9.822,9.973,10.364,14.235.243,1.909-.012,2.538-.012,2.538l-1.335,1.632c-13.214,16.146-16.513,25.496-17.199,30.074,6.736-1.146,16.49-7.699,22.345-19.614,1.947-4.035,2.713-7.534,2.322-10.66-.733-5.867-5.216-10.968-10.892-17.426-7.521-8.557-16.881-19.206-18.931-35.611-1.1-8.799-.021-18.283,3.28-28.832l-58.441,8.368-.068.01-.068.009c-3.176.43-5.014,2.804-5.827,4.181-1.779,3.012-2.072,6.799-.783,10.131l51.173,132.302,36.185-2.097-.558-15.473,123.252-4.446.792,21.962h107.942l1.701-27.535,37.753,2.332,61.98-144.35c3.186-8,2.28-16.935-2.434-23.932Zm-70.914,155.867l-.263.015-.264-.011c-59.572-2.498-121.133-1.267-179.722,8.521-.331.056-.662.084-.991.084-1.227,0-2.422-.381-3.442-1.109-1.29-.922-5.746-4.082-6.205-6.828-.513-3.098,1.477-6.068,4.526-6.772,58.977-13.591,119.629-21.073,180.272-22.236h.086s.086,0,.086,0c11.902,0,16.802,12.113,16.9,16.66.156,7.256-5.408,11.367-10.984,11.678Z" fill="#eeb2ca" stroke-width="0"/>
    <path d="m168.312,134.299c5.414,5.499,10.949,11.14,14.12,18.344,3.807-13.33,6.727-24.854,9.035-34.506-.549.148-1.1.275-1.649.356-3.273.477-6.358-.237-8.698-2.019-1.413-1.075-8.644-5.382-9.472-12.683-.594-5.241,1.995-11.685,7.869-19.178,5.764-7.315,11.962-11.411,17.431-15.025.511-.338,1.01-.669,1.508-1.001l-35.195,5.039c-3.052,5.824-5.71,11.943-7.824,18.203-2.271,6.763-3.055,12.631-2.392,17.929,1.292,10.341,8.08,17.238,15.267,24.54Z" fill="#eeb2ca" stroke-width="0"/>
    <path d="m365.962,133.727c3.244-.478,8.655-4.19,14.272-13.136,1.173-5.235,3.236-11.168,5.991-17.062-10.447,6.677-19.585,15.067-27.751,25.49.535,1.017,1.094,1.928,1.663,2.747,2.724,1.797,4.919,2.095,5.824,1.961Z" fill="#eeb2ca" stroke-width="0"/>
    <path d="m277.376,325.578l.33,9.156.165,4.578.165,4.578.159,4.407.006.171.159,4.407.165,4.579,1.212,33.603-9.829.354v12.395h0v.172h109.596v-161.258h-105.118l2.989,82.856Zm35.85-63.136l26.008,62.233v-62.233h24.383c-1.472,12.23-2.205,30.614-2.205,55.15,0,2.743.01,5.397.029,7.986.022,3.164.057,6.222.107,9.156.026,1.56.057,3.083.091,4.578.036,1.564.076,3.085.12,4.578.044,1.506.093,2.974.146,4.407.002.057.004.115.006.171.056,1.506.116,2.981.181,4.407.073,1.578.152,3.099.236,4.579.337,5.912.765,11.057,1.288,15.403h-24.383c-.855-4.442-2.284-9.593-4.247-15.403-.5-1.482-1.037-3.008-1.61-4.579-.522-1.432-1.073-2.901-1.655-4.407-.022-.057-.044-.114-.066-.171-.556-1.435-1.139-2.905-1.748-4.407-.26-.641-.505-1.263-.775-1.917-.371-.896-.743-1.775-1.115-2.661-.648-1.542-1.297-3.068-1.948-4.578-1.346-3.121-2.7-6.174-4.062-9.156-2.893-6.338-5.819-12.374-8.781-18.088v65.368h-24.381c.533-4.222.972-9.371,1.323-15.403.086-1.476.167-2.994.242-4.579.062-1.316.122-2.661.176-4.052.005-.117.007-.238.012-.355.002-.057.004-.115.006-.171.055-1.453.101-2.932.148-4.407.049-1.516.094-3.04.134-4.578.039-1.517.077-3.039.108-4.578.06-3.013.109-6.058.136-9.156.024-2.632.036-5.293.036-7.986,0-10.914-.195-21.305-.58-31.174-.389-9.87-.97-17.86-1.741-23.976h24.381Z" fill="#eeb2ca" stroke-width="0"/>
    <path d="m122.927,299.963c-.188-3.244-.498-6.108-.931-8.595-.109-.625-.227-1.22-.351-1.797-.688-3.198-1.61-5.67-2.772-7.401-.05-.07-.113-.127-.166-.195-.193-.248-.394-.489-.618-.708-1.303-1.274-3.123-2.046-5.46-2.313-.116-.013-.238-.02-.356-.031-.896-.082-1.854-.102-2.895-.041-.465.027-1.011.085-1.621.167-.109.015-.213.027-.327.044-.562.081-1.187.186-1.862.311-.835.154-1.75.339-2.757.558l.017.299.518,8.94,1.986,34.267.446,7.704.042.718,4.405-.255c3.891-.225,6.806-1.438,8.767-3.617.726-.807,1.331-1.735,1.792-2.81.026-.067.049-.146.074-.215.451-1.243.839-2.833,1.166-4.762.13-.77.253-1.587.363-2.466.028-.221.053-.455.08-.683.093-.8.181-1.628.259-2.513.223-2.539.339-5.1.363-7.681.003-.299-.004-.6-.004-.9,0-1.997-.042-4.004-.159-6.026Z" fill="#eeb2ca" stroke-width="0"/>
    <path d="m168.753,390.481l-.265-4.572-1.649-28.454-.265-4.579-.255-4.407-.01-.171-.255-4.407-.265-4.578-.265-4.578-.531-9.156-4.95-85.433-9.141.53-33.046,1.915-9.602.556-4.465.259-.336.019-4.465.259-.336.019-4.465.259-.336.019-2.5.145-3.014.175-3.015.175-34.599,2.005-.091.005,2.327,40.162.518,8.939.518,8.939,5.958,102.836.007.113,34.72-2.012,3.015-.175,3.015-.175,48.235-2.795,3.015-.175,3.014-.175,14.399-.834-.352-6.082-.265-4.571Zm-38.132-46.071c-.539.228-1.104.435-1.679.634-.878.303-1.797.573-2.76.808-2.396.586-5.049.968-7.972,1.137l-5.448.315-3.905.227-2.122.124.114,1.966.133,2.296.859,14.819.133,2.293.133,2.292.126,2.181-19.805,1.148-3.015.175-1.522.088c.073-1.069.133-2.217.187-3.4.1-2.188.173-4.553.211-7.131.06-4.043.043-8.562-.05-13.563-.103-5.468-.281-11.101-.519-16.869-.148-3.572-.324-7.21-.523-10.897-.062-1.151-.117-2.286-.184-3.448-.216-3.729-.459-7.375-.714-10.984-.054-.763-.108-1.524-.164-2.281-.056-.757-.107-1.529-.164-2.281-.386-5.074-.813-10.021-1.276-14.851-.024-.247-.045-.502-.069-.748-.051-.523-.103-1.019-.154-1.531-.077-.765-.153-1.536-.231-2.277-.495-4.712-1.01-8.94-1.546-12.688-.202-1.412-.408-2.741-.616-4.017-.192-1.178-.386-2.318-.583-3.38l.939-.054,2.282-.132,12.337-.715,3.015-.175.9-.052c.666-.039,1.371-.1,2.094-.172.691-.069,1.404-.15,2.148-.25.111-.015.216-.026.328-.042.543-.075,1.099-.157,1.669-.248.975-.094,1.87-.18,2.7-.26.11-.011.224-.022.332-.032,1.848-.177,3.315-.317,4.403-.418.116-.011.224-.021.332-.031,1.106-.103,1.762-.16,1.95-.171.859-.05,1.692-.077,2.512-.095,3.79-.08,7.166.189,10.129.805,4.068.846,7.364,2.34,9.874,4.496,2.694,2.327,4.838,6.215,6.433,11.667,1.595,5.452,2.597,11.694,3.005,18.724.295,5.1.288,10.102-.012,15.009-.164,2.677-.411,5.326-.752,7.945-.532,4.093-1.215,7.485-2.038,10.226-.67,2.231-1.43,4.039-2.292,5.375-.041.063-.083.119-.124.182-.072.111-.147.213-.22.321-.98,1.461-2.004,2.749-3.073,3.857-.082.085-.166.164-.249.247-1.114,1.118-2.277,2.047-3.488,2.785-.093.057-.186.112-.279.167-.254.148-.509.291-.768.423-.319.162-.638.324-.964.461Z" fill="#eeb2ca" stroke-width="0"/>
  </g>
  <g>
    <path d="m50.403,106.271l49.579,128.182.336-.019,4.465-.259,9.602-.556L63.213,101.317c-1.289-3.331-.996-7.119.783-10.131.813-1.377,2.651-3.75,5.827-4.181l.068-.009.068-.01,58.441-8.368c.469-1.499.983-3.02,1.542-4.563.167-.461.329-.92.504-1.385.434-1.162.904-2.334,1.392-3.511.042-.1.085-.201.127-.301.642-1.537,1.319-3.082,2.05-4.636.047-.101.099-.202.147-.303l-66.15,9.472c-4.932.668-9.419,3.071-12.844,6.775-1.12,1.211-2.128,2.561-2.999,4.036-2.682,4.541-3.837,9.701-3.423,14.836.197,2.44.743,4.874,1.656,7.234Z" fill="#fff8cb" stroke-width="0"/>
    <path d="m355.789,41.716c.804-1.649,1.618-3.308,2.44-4.974.05-.101.1-.203.15-.304.766-1.552,1.54-3.109,2.322-4.675.051-.101.102-.203.152-.304l-113.348,16.23c-.028.097-.061.197-.089.295-.432,1.483-.929,3.002-1.492,4.556-.036.099-.074.199-.111.298-.587,1.601-1.246,3.237-1.978,4.908-.668,1.525-1.397,3.077-2.19,4.656l111.88-16.02c.744-1.546,1.501-3.105,2.262-4.667Z" fill="#fff8cb" stroke-width="0"/>
    <path d="m464.517,30.689h0c6.453,0,12.46,3.423,16.481,9.391,4.714,6.997,5.62,15.932,2.434,23.932l-61.98,144.35,9.707.6,4.854.3,60.103-139.98c3.378-8.36,3.762-17.473,1.385-25.825-1.34-4.708-3.547-9.177-6.614-13.127-.862-1.11-1.774-2.144-2.721-3.123-6.393-6.612-14.627-10.205-23.463-10.246-1.553-.007-3.124.087-4.707.303l-64.742,9.27c.038.09.077.181.11.266.123.324.218.629.25.887.142,1.139.122,2.283-.042,3.426-.014.096-.032.193-.048.289-.262,1.577-.805,3.151-1.646,4.709-.03.056-.058.108-.088.164-.855,1.592-1.691,3.153-2.52,4.704l70.622-10.112c.881-.117,1.763-.176,2.622-.176Z" fill="#fff8cb" stroke-width="0"/>
    <path d="m205.683,63.21c1.736-1.532,3.388-3.252,4.963-5.336.025-.033.051-.061.075-.094.056-.074.107-.148.162-.223,1.205-1.617,2.308-3.225,3.32-4.818.066-.103.134-.207.199-.311l-41.789,5.984c-.074.104-.147.21-.222.314-1.112,1.563-2.198,3.167-3.255,4.808-.067.103-.133.207-.199.311-1.059,1.654-2.086,3.344-3.081,5.066-.893,1.547-1.76,3.119-2.596,4.714l35.195-5.039c2.575-1.715,4.975-3.39,7.227-5.378Z" fill="#fff8cb" stroke-width="0"/>
    <path d="m130.482,106.781c1.845,14.755,10.229,24.296,17.627,32.714,6.041,6.873,11.257,12.809,12.196,20.322.524,4.192-.403,8.679-2.833,13.714-6.842,13.922-18.35,21.401-26.721,22.636-3.458.508-6.358-.037-8.384-1.576-1.683-1.28-2.694-3.191-3.004-5.681-.588-4.697,1.033-15.761,18.485-37.086l.126-.153v-.198c.004-1.447-1.25-3.546-3.051-5.104-1.857-1.608-3.927-2.344-5.816-2.059-1.321.194-2.648,1.008-3.776,2.348-11.724,17.967-17.202,33.227-15.84,44.128.658,5.269,2.844,9.348,6.495,12.123,3.232,2.459,7.553,3.738,12.454,3.738,1.451,0,2.952-.112,4.491-.339,17.9-2.64,30.873-17.139,36.544-28.751,3.861-7.871,5.358-14.735,4.578-20.985-1.239-9.913-7.94-16.72-15.035-23.926-7.503-7.622-15.262-15.503-16.78-27.661-.766-6.12.096-12.77,2.635-20.328,1.014-3.002,2.139-5.965,3.363-8.877.657-1.563,1.35-3.107,2.063-4.638.782-1.68,1.595-3.339,2.439-4.974.053-.102.106-.203.159-.305.827-1.592,1.678-3.164,2.559-4.709.059-.103.119-.205.178-.308.987-1.72,2.004-3.409,3.051-5.062,1.106-1.746,2.245-3.451,3.412-5.114,11.409-16.252,25.544-28.33,38.945-32.142,1.665-.479,3.517-.871,5.505-1.163,6.297-.931,11.509.007,15.063,2.71,2.855,2.171,4.638,5.506,5.155,9.647.448,3.586-.015,7.596-1.31,11.876-.482,1.592-1.071,3.219-1.783,4.88-.699,1.63-1.518,3.291-2.434,4.973-.056.102-.11.204-.167.306-.865,1.568-1.814,3.152-2.862,4.752-.068.104-.134.208-.203.312-.921,1.393-1.909,2.795-2.966,4.204-.245.326-.492.641-.74.952-1.527,1.917-3.109,3.558-4.738,5.021-3.063,2.752-6.293,4.889-9.637,7.099-5.381,3.556-10.944,7.233-16.158,13.85-4.884,6.231-7.221,11.478-6.76,15.172.194,1.547.863,2.795,1.935,3.611,1.178.895,2.828,1.24,4.641.974,2.31-.34,4.717-1.644,6.568-3.547,16.158-13.947,27.58-27.363,35.288-39.432,1.028-1.609,2-3.198,2.897-4.758.98-1.703,1.885-3.375,2.716-5.014.052-.102.1-.202.151-.304.797-1.584,1.528-3.138,2.19-4.656.044-.101.085-.2.129-.301.724-1.677,1.365-3.311,1.932-4.902.594-1.666,1.1-3.28,1.531-4.844,1.715-6.233,2.175-11.631,1.635-15.951-.754-6.037-3.274-10.723-7.491-13.929-5.549-4.218-13.609-5.587-23.955-4.056-1.421.21-2.775.484-4.209.775l-.458.092c-22.077,4.79-42.774,24.621-56.18,46.051-1.049,1.678-2.05,3.365-3.007,5.056-.945,1.669-1.84,3.341-2.69,5.01-.052.102-.105.203-.157.305-.788,1.559-1.529,3.113-2.229,4.661-.046.101-.092.201-.137.302-.741,1.652-1.429,3.294-2.064,4.921-.181.464-.37.93-.542,1.392-.406,1.078-.78,2.139-1.14,3.192-3.691,10.807-4.968,20.33-3.882,29.016Z" fill="#fff8cb" stroke-width="0"/>
    <path d="m239.886,109.668c-.359-2.877-5.189-6.767-9.356-6.152-.776.114-1.539.331-2.178.74-6.872,4.258-13.696,15.201-27.403,35.842.81-3.78,6.654-16.255,8.425-24.987.059-.323.117-.646.079-.954-.308-2.465-3.989-5.06-7.866-4.488-.969.144-1.913.491-2.83,1.046-3.969,17.217-8.584,35.575-15.451,58.034-.02.629-.04,1.261.037,1.876.475,3.801,2.947,6.992,5.37,6.635.679-.1,1.429-.419,2.03-1.136,9.273-18.21,26.366-45.731,35.017-55.48-2.813,10.665-8.563,26.263-12.021,43.615-.02.63-.04,1.262.037,1.876.475,3.801,2.947,6.993,5.37,6.635.581-.085,1.332-.405,1.933-1.122,8.531-20.193,26.845-48.207,36.923-55.238-6.78,10.519-14.335,29.834-12.898,41.338.643,5.137,3.152,8.637,8.249,9.139.802.091,1.589.079,2.462-.05,5.192-.766,11.191-5.228,16.427-11.623,1.759,5.981,5.821,9.702,12.141,8.77,18.416-2.717,33.926-32.621,34.272-52.755.085-1.686.002-3.139-.177-4.576-1.027-8.218-5.642-12.766-12.039-11.823-12.309,1.816-22.679,17.57-24.905,21.876-1.391,2.296-2.576,6.236-3.18,10.091l-.484.072c-1.067.157-1.984.712-2.438,1.824-2.015,4.513-3.243,9.144-3.817,13.52-5.372,8.069-9.586,11.575-12.248,11.967-.677.1-1.285-.019-1.712-.27-.743-.413-1.272-1.486-1.503-3.334-.706-5.65,1.864-18.267,12.952-36.955.046-.424-.005-.836-.057-1.247-.475-3.799-3.946-7.889-8.314-8.082-7.754,1.144-17.485,10.948-29.351,31.317.81-3.78,6.461-16.225,8.426-24.987.059-.323.117-.645.078-.953Zm40.607,32.311c.09-.194.188-.383.276-.578.142-.44.202-.763.15-1.173-.019-.154-.076-.295-.131-.436.017-.097.026-.186.044-.284.84.4,1.932.448,3.095.276,2.908-.428,6.327-2.292,6.147-3.731-.025-.205-.161-.499-.477-.661-.769-.619-1.323-1.897-1.542-3.644-.5-4.006.681-10.352,3.224-14.492,1.992-3.014,6.113-8.747,11.249-9.504,3.781-.558,5.885,2.06,6.398,6.168.103.822.109,1.658.114,2.493-.313,12.495-10.881,32.987-22.318,34.674-2.908.428-5.677-1.986-6.204-6.197-.077-.617-.14-1.13-.121-1.761.017-.378.061-.765.098-1.149Z" fill="#fff8cb" stroke-width="0"/>
    <path d="m320.032,149.102c-.019.63-.04,1.261.038,1.877.487,3.903,2.971,7.198,5.491,6.826,1.066-.157,2.14-1.049,3.098-2.863l.79-3.151c3.514-7.423,7.144-13.919,10.948-19.816,3.386,7.345,11.727,22.747,24.907,20.802,7.991-1.178,14.21-6.669,19.804-14.927,2.459,8.816,10.222,12.695,19.043,11.394,11.533-1.702,28.12-12.726,39.024-33.687-.767-2.187-2.716-3.574-4.655-3.288-1.163.172-2.262.857-3.188,2.144-8.332,13.887-23.095,22.131-31.333,23.346-4.458.658-6.912-1.594-7.885-5.427,21.585-7.369,33.07-28.414,33.593-42.404.039-1.261-.005-2.405-.146-3.535-.809-6.471-4.765-10.489-10.581-9.632-14.607,2.155-29.682,26.624-33.663,45.878-7.204,11.827-14.111,15.774-18.567,16.431-5.428.801-14.992-3.855-19.989-16.194,12.004-16.102,24.514-25.793,36.219-32.435.285-.88.363-1.833.248-2.757-.398-3.185-3.207-5.907-7.67-6.085-7.85,1.158-24.191,18.109-38.655,39.803l-.013-.102c2.027-3.918,12.928-29.18,38.734-78.081.815-1.544,1.642-3.107,2.487-4.699.873-1.645,1.76-3.311,2.666-5.007.054-.1.11-.205.164-.306.826-1.546,1.667-3.115,2.52-4.703.055-.103.108-.202.164-.306.018-.033.035-.065.053-.099.934-1.732,1.253-3.287,1.171-4.701-.009-.164-.021-.327-.041-.487-.192-1.539-.887-2.847-1.867-3.865-1.701-1.768-4.268-2.656-6.605-2.311-.872.129-1.622.448-2.358.871-.511.983-1.014,1.962-1.52,2.942-.862,1.669-1.716,3.333-2.562,4.992-.851,1.668-1.694,3.33-2.529,4.987-.051.101-.103.203-.154.304-.788,1.565-1.569,3.124-2.343,4.678-.05.101-.101.203-.152.304-.829,1.666-1.649,3.325-2.461,4.977-.768,1.563-1.527,3.119-2.28,4.669-20.549,42.35-35.138,79.677-39.946,103.642Zm97.051-59.088c1.261-.186,1.945.551,2.099,1.783.77,6.161-9.79,25.921-23.266,32.617,1.555-13.619,11.475-32.97,21.168-34.4Z" fill="#fff8cb" stroke-width="0"/>
    <path d="m404.337,185.107c8.04-.448,7.729-11.995-.237-12.096-60.461,1.16-120.605,8.605-179.162,22.099-.276.064-.459.333-.412.616.049.294.328.493.622.444,59.323-9.911,119.479-13.561,179.188-11.063Z" fill="#fff8cb" stroke-width="0"/>
    <path d="m478.464,442.916l-61.202-42.982c-2.036-1.43-4.399-2.185-6.835-2.185-6.677,0-12.11,5.541-12.11,12.353v6.1h-237.61l-2.124-5.271-3.014.175-3.015.175,4.29,10.644h247.196v-11.823c0-3.897,3.077-6.63,6.387-6.63,1.196,0,2.423.357,3.546,1.146l61.202,42.982c3.737,2.625,3.737,8.344,0,10.968l-61.202,42.982c-1.123.789-2.35,1.146-3.546,1.146-3.31,0-6.387-2.734-6.387-6.63v-10.64h-255.508c-9.339,0-17.741-5.673-21.232-14.334l-22.982-57.016-3.015.175-3.015.175,23.703,58.807c4.387,10.884,14.804,17.917,26.539,17.917h249.785v4.917c0,6.811,5.432,12.353,12.11,12.353,2.436,0,4.799-.756,6.835-2.185l61.202-42.982c3.279-2.303,5.236-6.104,5.236-10.167,0-4.064-1.958-7.865-5.236-10.167Z" fill="#fff8cb" stroke-width="0"/>
    <path d="m28.622,136.441c-3.667,0-7.264.7-10.689,2.081-7.089,2.857-12.641,8.304-15.633,15.337-2.992,7.033-3.067,14.811-.209,21.9l41.19,102.191,8.065,139.194.037-.002,4.267-4.871,4.301-4.91-5.958-102.836-.518-8.939-.518-8.939-2.327-40.162.091-.005-4.824-4.306-4.824-4.306-.113.007,1.286,22.198L7.398,173.619c-4.727-11.725.948-25.063,12.674-29.789,2.804-1.131,5.7-1.666,8.549-1.666,9.062,0,17.644,5.42,21.24,14.34l31.846,79.008,3.015-.175,3.014-.175-32.567-80.798c-4.388-10.887-14.809-17.923-26.547-17.924Z" fill="#fff8cb" stroke-width="0"/>
    <path d="m194.752,435.685c-1.34-.883-3.351-1.325-6.032-1.325h-20.403l-2.693,5.385h20.456c2.739,0,4.109,1.097,4.109,3.291,0,1.552-.559,2.92-1.678,4.102-.665.713-1.714,1.489-3.147,2.33-1.038.598-1.673,1.211-1.906,1.837-.023.086-.035.228-.035.427,0,.399.233,1.037.699,1.913.466.877.699,1.628.699,2.254,0,1.966-1.043,3.384-3.13,4.253-1.41.57-3.136.855-5.175.855h-.892l5.368-18.505h-6.294l-6.312,21.924h9.092c3.193,0,5.991-.542,8.392-1.624,3.357-1.524,5.035-3.875,5.035-7.052,0-1.539-.449-3.256-1.346-5.15,2.214-1.325,3.864-2.535,4.948-3.633,1.807-1.823,2.71-3.782,2.71-5.876,0-2.521-.822-4.323-2.465-5.406Z" fill="#fff8cb" stroke-width="0"/>
    <path d="m200.558,438.656l-6.487,22.352c-.128.47-.192.89-.192,1.261,0,1.438.862,2.158,2.588,2.158h6.731c.839,0,1.626-.214,2.36-.641.852-.486,1.45-1.192,1.802-2.11.212.614.512,1.162.908,1.64.851,1.026,1.958,1.539,3.322,1.539,1.853,0,3.415-.883,4.685-2.65,0,1.482.944,2.223,2.833,2.223h6.626c2.093,0,3.462-.95,4.112-2.844-.047.244-.073.494-.073.75,0,1.396,1.095,2.094,3.287,2.094h11.417c1.558,0,2.693-.598,3.411-1.788.126.34.308.648.549.922.507.577,1.145.865,1.914.865h1.329c-.653.57-1.18,1.389-1.582,2.457s-.603,2.173-.603,3.312c0,1.438.344,2.614,1.031,3.526.793,1.04,1.918,1.56,3.375,1.56,2.319,0,4.26-1.125,5.822-3.376,1.119-1.624,2.185-4.118,3.199-7.479h4.266c1.888,0,3.176-1.14,3.864-3.419h-7.221l3.217-11.112h-6.312l-3.217,11.112h-3.549l3.269-11.112h-6.346l-3.042,10.278c-.079.281-.129.559-.155.834h-10.336l8.305-11.112h-14.791l-.962,3.419h5.945l-5.193,6.518c-.293.373-.514.765-.662,1.175h-7.241l3.287-11.112h-9.983c-2.495,0-4.587.784-6.277,2.351-1.865,1.724-2.797,4.075-2.797,7.052,0,.613.059,1.183.176,1.71h-6.943l6.521-22.352h-6.189Zm53.719,27.94c.658-1.062,1.372-1.592,2.142-1.592l-2.115,7.03c-.676-.57-1.014-1.324-1.014-2.265,0-1.055.329-2.112.988-3.173Zm-40.624-8.302l1.224-4.979h3.864l-2.22,7.693c-1.982,0-2.972-.62-2.972-1.859,0-.257.035-.541.105-.855Z" fill="#fff8cb" stroke-width="0"/>
    <path d="m288.438,454.148c.967-.556,2.104-.834,3.409-.834h5.193l-1.276-3.419h-6.661c-6.469,0-9.703,2.322-9.703,6.966,0,3.192,1.754,5.556,5.263,7.095,2.494,1.097,5.356,1.646,8.584,1.646,3.532,0,6.615-.72,9.249-2.158,3.532-1.952,5.297-4.879,5.297-8.783,0-1.823-.522-4.345-1.565-7.564-1.043-3.22-1.565-5.293-1.565-6.219,0-1.809.886-2.714,2.657-2.714.14,0,.472.029.996.086-.093.527-.14.954-.14,1.282,0,1.41.454,2.615,1.363,3.612.909.997,2.005,1.496,3.287,1.496s2.381-.499,3.296-1.496c.915-.997,1.372-2.202,1.372-3.612,0-1.425-.484-2.657-1.451-3.697-.933-.983-1.993-1.475-3.182-1.475h-4.318c-7.238,0-10.857,2.6-10.857,7.8,0,1.596.478,3.833,1.434,6.71.956,2.878,1.434,5.086,1.434,6.624,0,2.236-.752,3.953-2.255,5.15-1.294,1.04-2.908,1.56-4.843,1.56-1.527,0-2.961-.349-4.301-1.047-1.737-.911-2.605-2.173-2.605-3.783,0-1.425.63-2.5,1.888-3.226Z" fill="#fff8cb" stroke-width="0"/>
    <path d="m312.936,449.896l-2.937,9.851c-.164.542-.245,1.068-.245,1.582,0,.912.245,1.646.735,2.201.524.598,1.259.898,2.203.898h3.077c1.55,0,2.78-.669,3.689-2.009,0,1.34.857,2.009,2.57,2.009h7.308c.735,0,1.428-.242,2.081-.727.365-.27.67-.598.921-.979.45,1.136,1.656,1.706,3.625,1.706h13.288c1.002,0,1.926-.331,2.771-.994.366-.287.652-.602.868-.944.159.295.345.571.557.827.851,1.026,1.958,1.539,3.322,1.539,1.853,0,3.415-.883,4.685-2.65,0,1.482.944,2.223,2.833,2.223h6.626c1.192,0,2.147-.31,2.871-.924l-.266.924h3.217c.909,0,2.069-.598,3.479-1.795l6.015-6.218-1.329,4.594c-.164.57-.245,1.068-.245,1.496,0,1.282.798,1.923,2.395,1.923h6.976c.839,0,1.626-.214,2.36-.641,1.037-.598,1.708-1.524,2.011-2.778h-7.151l2.255-7.693c.186-.655.28-1.247.28-1.773,0-1.425-.571-2.165-1.713-2.223-1.69-.057-3.258.635-4.703,2.073l-5.333,5.342,1.975-6.838h-6.312l-3.195,11.112h-6.561l3.287-11.112h-9.983c-2.495,0-4.587.784-6.277,2.351-1.865,1.724-2.797,4.075-2.797,7.052,0,.613.059,1.183.176,1.71h-5.964c.792-.869,1.189-1.916,1.189-3.141,0-1.111-.268-2.564-.804-4.359-.443-1.396-.88-2.793-1.311-4.189.501-.868.752-1.816.752-2.842,0-1.752-.968-2.827-2.902-3.226l-4.301,5.598c.012.67.094,1.268.245,1.795.081.285.227.648.437,1.089l-4.651,5.257h3.497l1.976-2.201c.501,1.723.752,2.827.752,3.312,0,.969-.309,1.923-.926,2.863-2.157-1.652-3.864-2.5-5.123-2.542-.723-.015-1.364.185-1.923.598-.653.47-1.026,1.132-1.119,1.987h-6.26l3.182-11.112h-6.276l-3.252,11.112h-3.549l3.269-11.112h-6.346Zm45.896,8.398l1.224-4.979h3.864l-2.22,7.693c-1.981,0-2.972-.62-2.972-1.859,0-.257.035-.541.105-.855Z" fill="#fff8cb" stroke-width="0"/>
    <path d="m401.373,448.889h.033c.067.268.156.625.212.86l.547,1.73h.625l.547-1.685c.089-.279.179-.636.257-.904h.033c.011.324.011.614.022.848l.112,1.786h.603l-.234-3.036h-.871l-.525,1.496c-.067.223-.134.48-.212.759h-.011c-.078-.313-.134-.536-.201-.77l-.525-1.485h-.904l-.223,3.036h.58l.112-1.786c.011-.279.022-.569.022-.848Z" fill="#fff8cb" stroke-width="0"/>
    <polygon points="399.508 451.523 399.508 448.989 400.48 448.989 400.48 448.487 397.934 448.487 397.934 448.989 398.906 448.989 398.906 451.523 399.508 451.523" fill="#fff8cb" stroke-width="0"/>
    <path d="m31.147,163.611c-4.118,0-7.468,3.35-7.468,7.468s3.35,7.468,7.468,7.468,7.468-3.35,7.468-7.468-3.35-7.468-7.468-7.468Z" fill="#fff8cb" stroke-width="0"/>
    <path d="m43.685,209.93c4.118,0,7.468-3.35,7.468-7.468s-3.35-7.468-7.468-7.468-7.468,3.35-7.468,7.468,3.35,7.468,7.468,7.468Z" fill="#fff8cb" stroke-width="0"/>
    <path d="m56.195,226.375c-4.118,0-7.468,3.35-7.468,7.468,0,1.276.323,2.478.889,3.529l13.517-.783c.338-.851.53-1.776.53-2.746,0-4.118-3.35-7.468-7.468-7.468Z" fill="#fff8cb" stroke-width="0"/>
    <path d="m132.124,414.664c-4.118,0-7.468,3.35-7.468,7.468s3.35,7.468,7.468,7.468,7.468-3.351,7.468-7.468-3.35-7.468-7.468-7.468Z" fill="#fff8cb" stroke-width="0"/>
    <path d="m144.823,460.982c4.118,0,7.468-3.35,7.468-7.468s-3.35-7.468-7.468-7.468-7.468,3.35-7.468,7.468,3.35,7.468,7.468,7.468Z" fill="#fff8cb" stroke-width="0"/>
    <path d="m420.458,441.467c4.118,0,7.468-3.35,7.468-7.469s-3.35-7.468-7.468-7.468-7.468,3.35-7.468,7.468,3.35,7.469,7.468,7.469Z" fill="#fff8cb" stroke-width="0"/>
    <circle cx="420.458" cy="468.931" r="7.468" fill="#fff8cb" stroke-width="0"/>
    <path d="m460.833,453.514c0-4.118-3.351-7.468-7.468-7.468s-7.469,3.35-7.469,7.468,3.35,7.468,7.469,7.468,7.468-3.35,7.468-7.468Z" fill="#fff8cb" stroke-width="0"/>
    <path d="m444.51,218.96l-2.625-.162-2.228-.138-2.625-.162-4.854-.3-4.854-.3-9.707-.6-28.032-1.732-5.884-9.537-1.701,27.535h6.663v143.512l98.488,6.083,9.942-160.951-47.729-2.948-4.854-.3Zm9.779,26.208l29.318,1.811-31.491,37.143,24.691,72.949-30.476-1.882c-.505-10.655-1.581-20.279-3.219-28.874-1.642-8.593-3.912-16.429-6.807-23.512l-9.154,10.718-2.49,40.328-24.336-1.503c1.147-6.054,2.22-14.014,3.219-23.881.106-1.054.204-2.138.307-3.204.456-4.732.878-9.577,1.262-14.541.193-2.492.377-5.011.551-7.561.132-1.933.265-3.864.387-5.831.01-.154.017-.303.026-.457.149-2.438.288-4.853.415-7.242.234-4.407.421-8.712.578-12.951.133-3.571.248-7.104.327-10.557.014-.646.024-1.262.036-1.892.17-9.038.075-16.453-.293-22.204l9.573.591,4.854.3,4.854.3,2.625.162,2.228.138.201.012-.418,6.77-.837,13.553-1.135,18.382c9.913-11.097,18.316-23.451,25.206-37.063Z" fill="#fff8cb" stroke-width="0"/>
    <polygon points="260.752 391.743 260.752 412.793 265.33 408.301 269.909 403.808 269.909 391.413 265.33 391.578 260.752 391.743" fill="#fff8cb" stroke-width="0"/>
    <path d="m270.258,382.237l-.349-9.666-.545-15.116-.165-4.579-.159-4.407-.006-.171-.159-4.407-.165-4.578-.165-4.578-.33-9.156-1.867-51.75-.38-10.524-.636-17.631-.437-12.107-.45-12.481-106.786,3.852-7.644-8.886.558,15.473,18.082-1.048,5.51,95.104.531,9.156.265,4.578.265,4.578.255,4.407.01.171.255,4.407.265,4.579,1.63,28.124,83.112-2.999,4.578-.165,4.579-.165.349-.013Zm-73.025-22.783c.058-.642.111-1.316.163-1.999.109-1.433.204-2.965.289-4.579.073-1.405.139-2.866.193-4.407.002-.056.003-.115.005-.171.049-1.409.089-2.884.122-4.407.032-1.478.059-2.994.076-4.578.014-1.262.024-2.552.028-3.881,0-.229-.002-.467-.002-.697.006-3.001-.012-6.061-.045-9.156-.073-6.88-.233-13.974-.498-21.323-.393-10.906-.962-21.284-1.703-31.133-.744-9.85-1.613-17.814-2.605-23.898l26.106-.942c-.708,12.575-.625,30.967.248,55.177.289,8.01.621,15.373.993,22.118.176,3.192.361,6.248.556,9.156.105,1.568.213,3.093.323,4.578.117,1.574.237,3.097.36,4.578.126,1.515.254,2.989.386,4.407.005.058.011.113.016.171.143,1.526.289,2.993.44,4.407.17,1.6.345,3.123.525,4.579.043.351.086.714.13,1.057l-26.106.942Z" fill="#fff8cb" stroke-width="0"/>
  </g>
  <g>
    <path d="m505.973,39.867c-1.68-5.421-4.294-10.57-7.853-15.153-9.615-12.385-24.326-18.56-39.386-16.521l-69.421,9.94c-1.768-2.052-3.371-3.711-3.964-4.161-2.819-2.145-6.387-3.081-9.8-2.583-1.462.216-2.816.702-4.259,1.529l-1.375.789-.731,1.406c-1.11,2.135-2.205,4.259-3.288,6.373l-116.467,16.677c.383-3.434.373-6.584,0-9.394-1.592-11.984-13.099-21.538-15.028-23.004-6.756-5.135-16.177-6.853-28.015-5.1-1.572.233-3.057.533-4.479.822l-.544.109c-24.841,5.39-47.922,28.392-61.901,52.314l-72.712,10.412c-9.307,1.261-17.494,6.81-22.463,15.223-5.391,9.128-6.274,20.073-2.423,30.03l48.517,125.435-2.643.153-3.014.175-3.015.175-31.846-79.008c-3.595-8.921-12.178-14.34-21.24-14.34-2.849,0-5.745.535-8.549,1.666-11.726,4.726-17.401,18.064-12.674,29.789l34.846,86.453-1.286-22.198.113-.007,4.824,4.306,4.824,4.306,34.599-2.005,3.015-.175,3.014-.175,2.5-.145.336-.019,4.465-.259.336-.019,4.465-.259.336-.019,4.465-.259,9.602-.556,33.046-1.915,9.141-.53,4.95,85.433.531,9.156.265,4.578.265,4.578.255,4.407.01.171.255,4.407.265,4.579,1.649,28.454.265,4.572.265,4.571.352,6.082-14.399.834-3.014.175-3.015.175-48.235,2.795-3.015.175-3.015.175-34.72,2.012-.007-.113-4.301,4.91-4.267,4.871,46.906-2.718,3.015-.175,3.015-.175,22.982,57.016c3.491,8.661,11.893,14.334,21.232,14.334h255.508v10.64c0,3.896,3.077,6.63,6.387,6.63,1.196,0,2.423-.357,3.546-1.146l61.202-42.982c3.737-2.624,3.737-8.344,0-10.968l-61.202-42.982c-1.123-.788-2.35-1.146-3.546-1.146-3.31,0-6.387,2.733-6.387,6.63v11.823h-247.196l-4.29-10.644,3.015-.175,3.014-.175,20.458-1.185-.87-15.023,82.582-2.979,4.578-.165,4.579-.165,9.829-.354-1.212-33.603-.165-4.579-.159-4.407-.006-.171-.159-4.407-.165-4.578-.165-4.578-.33-9.156-2.989-82.856h105.118v161.258h-109.596v-.172h0s-4.579,4.493-4.579,4.493l-4.578,4.492h0v.343h127.909v-26.886l107.063,6.614,11.071-179.23-53.595-3.31,55.17-128.488.036-.087c5.581-13.77,4.554-29.222-2.433-41.881Zm-85.515,401.6c-4.118,0-7.468-3.35-7.468-7.469s3.35-7.468,7.468-7.468,7.468,3.35,7.468,7.468-3.35,7.469-7.468,7.469Zm0,19.995c4.118,0,7.468,3.35,7.468,7.468s-3.35,7.468-7.468,7.468-7.468-3.351-7.468-7.468,3.35-7.468,7.468-7.468Zm25.439-7.949c0-4.118,3.35-7.468,7.469-7.468s7.468,3.35,7.468,7.468-3.351,7.468-7.468,7.468-7.469-3.35-7.469-7.468Zm-57.235-76.437v-143.512h-114.605l-.792-21.962-123.252,4.446,7.644,8.886,106.786-3.852.45,12.481.437,12.107.636,17.631.38,10.524,1.867,51.75.33,9.156.165,4.578.165,4.578.159,4.407.006.171.159,4.407.165,4.579.545,15.116.349,9.666-.349.013-4.579.165-4.578.165-83.112,2.999-1.63-28.124-.265-4.579-.255-4.407-.01-.171-.255-4.407-.265-4.578-.265-4.578-.531-9.156-5.51-95.104-18.082,1.048-36.185,2.097-9.602.556-4.465.259-.336.019L50.403,106.271c-.913-2.36-1.459-4.794-1.656-7.234-.414-5.135.741-10.294,3.423-14.836.871-1.475,1.879-2.825,2.999-4.036,3.425-3.704,7.911-6.106,12.844-6.775l66.15-9.472c-.048.101-.1.202-.147.303-.731,1.554-1.408,3.099-2.05,4.636-.042.1-.085.201-.127.301-.488,1.177-.959,2.35-1.392,3.511-.175.465-.337.924-.504,1.385-.559,1.543-1.073,3.064-1.542,4.563-3.3,10.55-4.38,20.033-3.28,28.832,2.05,16.405,11.41,27.054,18.931,35.611,5.676,6.457,10.159,11.559,10.892,17.426.391,3.126-.374,6.625-2.322,10.66-5.855,11.915-15.61,18.469-22.345,19.614.686-4.578,3.986-13.928,17.199-30.074l1.335-1.632s.255-.629.012-2.538c-.542-4.261-9.21-13.235-10.364-14.235-3.076-2.662-6.681-3.836-10.14-3.32-2.67.393-5.133,1.851-7.122,4.215l-.391.526c-12.61,19.324-18.22,35.39-16.676,47.749.834,6.673,3.803,12.121,8.584,15.752.259.197.538.371.806.557,1.275,1.869,2.825,3.512,4.64,4.891,4.162,3.167,9.6,4.841,15.724,4.841,1.71,0,3.485-.134,5.279-.397,19.98-2.949,34.364-18.934,40.607-31.717.901-1.837,1.659-3.622,2.33-5.378.308.298,4.994,5.2,6.409,6.277,1.598,1.215,3.438,1.855,5.285,1.855.386,0,.771-.028,1.156-.085,2.102-.312,4.013-1.38,5.379-3.01l.395-.472.278-.547c2.324-4.563,5.055-9.555,7.964-14.627.849,2.867,2.449,5.365,4.533,6.949.622.473,4.036,4.375,5.447,5.447,1.931,1.469,4.214,2.094,6.435,1.771,2.039-.302,3.914-1.365,5.281-2.994l.523-.621.315-.749c2.358-5.58,5.443-11.682,8.848-17.716,1.017,8.191,12.93,15.737,17.836,16.219,1.279.148,2.543.122,3.863-.072,4.655-.686,9.646-3.416,14.474-7.849,3.473,3.981,8.437,5.828,14.096,4.995,9.069-1.338,17.943-7.915,25.314-18.638.925,2.142,2.275,3.978,3.926,5.233.614.467,4.032,4.37,5.445,5.445,1.608,1.223,3.462,1.867,5.324,1.867.391,0,.782-.028,1.171-.085,2.021-.3,4.89-1.528,7.085-5.685l.305-.577.818-3.263c1.618-3.396,3.281-6.62,5.006-9.73,1.359,1.504,2.721,2.779,4.077,3.853,7.985,9.793,16.244,11.285,22.451,10.374,6.749-.996,12.652-4.356,18.181-10.425,4.706,5.536,12.109,8.151,20.666,6.892,17.973-2.654,36.03-21.787,43.028-36.538-1.206-12.405-10.966-16.883-14.931-16.646,1.236-3.883,1.936-7.715,2.07-11.309.048-1.554.033-2.991-.186-4.374-1.461-9.231-10.1-16.05-11.606-17.195-2.966-2.256-6.624-3.14-10.569-2.556-9.246,1.364-17.824,9.232-24.577,19.098-.949-3.15-8.757-14.315-17.841-14.315l-.504-.02-.5.074c-.708.105-1.449.309-2.204.558,5.278-10.377,11.484-22.322,18.705-35.834.828-1.55,1.664-3.112,2.52-4.704.03-.055.058-.108.088-.164.841-1.558,1.383-3.133,1.646-4.709.016-.096.034-.193.048-.289.164-1.143.184-2.286.042-3.426-.032-.258-.128-.562-.25-.887-.032-.086-.072-.177-.11-.266l64.742-9.27c1.583-.215,3.154-.31,4.707-.303,8.836.041,17.069,3.635,23.463,10.246.947.979,1.859,2.014,2.721,3.123,3.067,3.95,5.274,8.419,6.614,13.127,2.377,8.352,1.993,17.465-1.385,25.825l-60.103,139.98-4.854-.3-9.707-.6-37.753-2.332,5.884,9.537,28.032,1.732,9.707.6,4.854.3,4.854.3,2.625.162,2.228.138,2.625.162,4.854.3,47.729,2.948-9.942,160.951-98.488-6.083ZM155.437,91.83c2.114-6.26,4.772-12.38,7.824-18.203.836-1.596,1.702-3.167,2.596-4.714.995-1.723,2.023-3.412,3.081-5.066.066-.104.132-.208.199-.311,1.057-1.641,2.143-3.245,3.255-4.808.074-.104.147-.21.222-.314l41.789-5.984c-.065.103-.134.207-.199.311-1.011,1.593-2.115,3.201-3.32,4.818-.055.074-.106.148-.162.223-.025.033-.051.061-.075.094-1.576,2.084-3.227,3.804-4.963,5.336-2.252,1.987-4.652,3.663-7.227,5.378-.498.332-.997.663-1.508,1.001-5.469,3.614-11.667,7.71-17.431,15.025-5.874,7.493-8.463,13.937-7.869,19.178.828,7.302,8.058,11.608,9.472,12.683,2.341,1.782,5.426,2.496,8.698,2.019.55-.081,1.1-.208,1.649-.356-2.308,9.652-5.228,21.176-9.035,34.506-3.171-7.204-8.706-12.846-14.12-18.344-7.187-7.302-13.975-14.199-15.267-24.54-.663-5.298.121-11.165,2.392-17.929Zm64.017-49.375l-38.402,5.499c8.624-9.452,18.054-16.266,26.927-18.79,1.436-.412,3.051-.752,4.804-1.01,3.209-.476,6.018-.346,8.234.325.172.594.302,1.231.387,1.911.433,3.458-.261,7.579-1.95,12.065Zm24.382,15.291c.732-1.671,1.391-3.308,1.978-4.908.036-.099.075-.199.111-.298.563-1.554,1.06-3.073,1.492-4.556.028-.098.061-.198.089-.295l113.348-16.23c-.051.101-.102.203-.152.304-.783,1.566-1.556,3.123-2.322,4.675-.05.101-.1.203-.15.304-.822,1.666-1.637,3.325-2.44,4.974-.761,1.562-1.519,3.121-2.262,4.667-10.37,21.556-19.055,41.53-25.694,59.046-1.231-3.261-3.101-5.902-5.556-7.769-.482-.366-.985-.687-1.498-.985-1.076-1.767-2.388-3.276-3.947-4.461-3.156-2.399-7.022-3.34-11.18-2.73-13.679,2.017-24,16.681-27.561,22.431-1.297-2.331-3.224-4.408-5.636-5.799-2.292-3.884-6.364-6.996-11.482-7.223l-.516-.022-.511.075c-4.538.67-9.184,3.265-14.075,7.878-.072-.056-.137-.116-.21-.171-.504-.383-1.027-.722-1.558-1.038-.878-1.603-2.2-3.124-3.888-4.407-3.206-2.439-7.017-3.55-10.469-3.037-1.638.24-3.085.756-4.239,1.492-3.714,2.301-7.22,5.988-11.336,11.424-.012-.006-.024-.013-.036-.02-.692-1.566-1.847-3.001-3.393-4.176-.776-.59-1.616-1.078-2.493-1.48,16.215-15.463,26.926-30.116,33.399-43.008.793-1.579,1.522-3.132,2.19-4.656Zm-34.383,56.41c.038.308-.02.631-.079.954-1.771,8.733-7.614,21.208-8.425,24.987,13.707-20.641,20.531-31.585,27.403-35.842.639-.408,1.402-.626,2.178-.74,4.167-.615,8.997,3.275,9.356,6.152.039.308-.019.63-.078.953-1.965,8.762-7.615,21.208-8.426,24.987,11.866-20.369,21.597-30.173,29.351-31.317,4.368.193,7.839,4.283,8.314,8.082.052.412.103.823.057,1.247-11.088,18.688-13.658,31.305-12.952,36.955.231,1.849.76,2.922,1.503,3.334.426.251,1.034.37,1.712.27,2.663-.393,6.876-3.898,12.248-11.967.574-4.376,1.802-9.007,3.817-13.52.454-1.112,1.371-1.667,2.438-1.824l.484-.072c.605-3.855,1.79-7.795,3.18-10.091,2.227-4.305,12.596-20.06,24.905-21.876,6.397-.943,11.012,3.605,12.039,11.823.179,1.437.263,2.89.177,4.576-.346,20.135-15.857,50.038-34.272,52.755-6.32.932-10.382-2.788-12.141-8.77-5.235,6.396-11.235,10.857-16.427,11.623-.873.129-1.66.14-2.462.05-5.097-.502-7.606-4.002-8.249-9.139-1.437-11.504,6.118-30.819,12.898-41.338-10.078,7.031-28.392,35.046-36.923,55.238-.601.716-1.352,1.036-1.933,1.122-2.423.358-4.895-2.834-5.37-6.635-.077-.614-.057-1.246-.037-1.876,3.458-17.352,9.208-32.95,12.021-43.615-8.652,9.749-25.744,37.27-35.017,55.48-.601.718-1.352,1.036-2.03,1.136-2.423.357-4.895-2.834-5.37-6.635-.077-.615-.057-1.247-.037-1.876,6.867-22.458,11.483-40.817,15.451-58.034.917-.555,1.861-.902,2.83-1.046,3.877-.572,7.557,2.023,7.866,4.488ZM373.979,17.605c.737-.422,1.487-.742,2.358-.871,2.337-.345,4.904.543,6.605,2.311.98,1.018,1.674,2.326,1.867,3.865.02.16.031.323.041.487.082,1.415-.237,2.97-1.171,4.701-.018.033-.035.065-.053.099-.056.103-.108.202-.164.306-.853,1.589-1.694,3.157-2.52,4.703-.054.101-.11.206-.164.306-.906,1.695-1.792,3.362-2.666,5.007-.845,1.592-1.672,3.154-2.487,4.699-25.806,48.901-36.707,74.164-38.734,78.081l.013.102c14.464-21.694,30.805-38.645,38.655-39.803,4.464.178,7.273,2.901,7.67,6.085.115.924.037,1.877-.248,2.757-11.706,6.643-24.215,16.334-36.219,32.435,4.996,12.34,14.561,16.995,19.989,16.194,4.457-.657,11.363-4.604,18.567-16.431,3.981-19.254,19.056-43.723,33.663-45.878,5.815-.857,9.771,3.161,10.581,9.632.14,1.13.185,2.274.146,3.535-.522,13.99-12.007,35.035-33.593,42.404.973,3.833,3.426,6.085,7.885,5.427,8.238-1.215,23.002-9.459,31.333-23.346.925-1.287,2.025-1.972,3.188-2.144,1.938-.286,3.887,1.101,4.655,3.288-10.904,20.961-27.49,31.985-39.024,33.687-8.82,1.301-16.583-2.578-19.043-11.394-5.594,8.258-11.813,13.749-19.804,14.927-13.181,1.945-21.521-13.457-24.907-20.802-3.804,5.897-7.434,12.392-10.948,19.816l-.79,3.151c-.958,1.814-2.032,2.706-3.098,2.863-2.52.371-5.004-2.923-5.491-6.826-.078-.616-.057-1.247-.038-1.877,4.808-23.965,19.397-61.292,39.946-103.642.752-1.55,1.512-3.106,2.28-4.669.812-1.652,1.632-3.311,2.461-4.977.05-.101.101-.203.152-.304.774-1.554,1.555-3.113,2.343-4.678.051-.101.102-.203.154-.304.835-1.657,1.678-3.319,2.529-4.987.846-1.659,1.701-3.323,2.562-4.992.506-.98,1.009-1.958,1.52-2.942Zm12.247,85.924c-2.756,5.893-4.818,11.827-5.991,17.062-5.618,8.945-11.029,12.657-14.272,13.136-.905.135-3.1-.164-5.824-1.961-.568-.82-1.128-1.731-1.663-2.747,8.166-10.423,17.304-18.812,27.751-25.49ZM202.509,6.876l.458-.092c1.434-.29,2.788-.565,4.209-.775,10.346-1.531,18.406-.161,23.955,4.056,4.217,3.206,6.737,7.892,7.491,13.929.54,4.32.08,9.718-1.635,15.951-.43,1.564-.937,3.178-1.531,4.844-.567,1.591-1.208,3.224-1.932,4.902-.043.1-.085.2-.129.301-.662,1.518-1.393,3.072-2.19,4.656-.051.102-.1.202-.151.304-.831,1.639-1.736,3.311-2.716,5.014-.898,1.559-1.869,3.148-2.897,4.758-7.708,12.07-19.131,25.485-35.288,39.432-1.851,1.903-4.258,3.207-6.568,3.547-1.813.266-3.463-.079-4.641-.974-1.072-.816-1.741-2.064-1.935-3.611-.461-3.694,1.876-8.941,6.76-15.172,5.215-6.616,10.778-10.294,16.158-13.85,3.344-2.21,6.573-4.347,9.637-7.099,1.629-1.464,3.211-3.104,4.738-5.021.248-.311.495-.626.74-.952,1.057-1.409,2.044-2.811,2.966-4.204.069-.104.135-.208.203-.312,1.048-1.6,1.997-3.185,2.862-4.752.056-.102.111-.204.167-.306.916-1.682,1.735-3.343,2.434-4.973.712-1.661,1.302-3.288,1.783-4.88,1.294-4.281,1.758-8.291,1.31-11.876-.517-4.141-2.299-7.476-5.155-9.647-3.554-2.702-8.766-3.641-15.063-2.71-1.988.292-3.84.684-5.505,1.163-13.402,3.812-27.536,15.89-38.945,32.142-1.167,1.663-2.306,3.368-3.412,5.114-1.048,1.653-2.065,3.342-3.051,5.062-.059.103-.12.205-.178.308-.881,1.545-1.732,3.116-2.559,4.709-.053.102-.106.203-.159.305-.844,1.636-1.657,3.295-2.439,4.974-.713,1.531-1.406,3.075-2.063,4.638-1.224,2.912-2.35,5.876-3.363,8.877-2.539,7.557-3.401,14.207-2.635,20.328,1.518,12.158,9.277,20.039,16.78,27.661,7.094,7.206,13.796,14.013,15.035,23.926.781,6.25-.716,13.114-4.578,20.985-5.671,11.613-18.645,26.111-36.544,28.751-1.539.227-3.04.339-4.491.339-4.9,0-9.221-1.279-12.454-3.738-3.651-2.775-5.836-6.855-6.495-12.123-1.362-10.901,4.115-26.161,15.84-44.128,1.128-1.34,2.454-2.154,3.776-2.348,1.889-.285,3.959.451,5.816,2.059,1.8,1.559,3.055,3.657,3.052,5.104v.198s-.127.153-.127.153c-17.452,21.326-19.073,32.39-18.485,37.086.31,2.49,1.321,4.401,3.004,5.681,2.026,1.54,4.926,2.084,8.384,1.576,8.371-1.236,19.879-8.714,26.721-22.636,2.43-5.034,3.358-9.521,2.833-13.714-.939-7.513-6.155-13.45-12.196-20.322-7.398-8.417-15.783-17.959-17.627-32.714-1.086-8.686.191-18.21,3.882-29.016.36-1.053.734-2.114,1.14-3.192.172-.461.361-.928.542-1.392.635-1.627,1.323-3.269,2.064-4.921.045-.101.091-.201.137-.302.7-1.548,1.441-3.103,2.229-4.661.051-.101.105-.203.157-.305.85-1.669,1.745-3.341,2.69-5.01.957-1.691,1.958-3.378,3.007-5.056,13.405-21.429,34.103-41.26,56.18-46.051ZM38.615,171.08c0,4.118-3.35,7.468-7.468,7.468s-7.468-3.35-7.468-7.468,3.35-7.468,7.468-7.468,7.468,3.35,7.468,7.468Zm5.07,23.913c4.118,0,7.468,3.35,7.468,7.468s-3.35,7.468-7.468,7.468-7.468-3.35-7.468-7.468,3.35-7.468,7.468-7.468Zm19.448,41.596l-13.517.783c-.567-1.052-.889-2.253-.889-3.529,0-4.118,3.351-7.468,7.468-7.468s7.468,3.35,7.468,7.468c0,.97-.192,1.895-.53,2.746Zm89.158,216.925c0,4.118-3.35,7.468-7.468,7.468s-7.468-3.35-7.468-7.468,3.35-7.468,7.468-7.468,7.468,3.35,7.468,7.468Zm-20.168-38.849c4.118,0,7.468,3.35,7.468,7.468s-3.35,7.468-7.468,7.468-7.468-3.351-7.468-7.468,3.35-7.468,7.468-7.468Zm268.758,33.823h.904l.525,1.485c.067.234.123.458.201.77h.011c.078-.279.145-.536.212-.759l.525-1.496h.871l.234,3.036h-.603l-.112-1.786c-.011-.234-.011-.525-.022-.848h-.033c-.078.268-.167.625-.257.904l-.547,1.685h-.625l-.547-1.73c-.056-.234-.145-.592-.212-.86h-.033c0,.279-.011.569-.022.848l-.112,1.786h-.58l.223-3.036Zm-2.947,0h2.545v.502h-.971v2.534h-.603v-2.534h-.971v-.502Zm-78.372,12.52l3.252-11.112h6.276l-3.182,11.112h6.26c.093-.855.466-1.517,1.119-1.987.559-.413,1.2-.613,1.923-.598,1.259.042,2.966.89,5.123,2.542.618-.94.926-1.894.926-2.863,0-.485-.251-1.589-.752-3.312l-1.976,2.201h-3.497l4.651-5.257c-.21-.441-.356-.805-.437-1.089-.151-.527-.233-1.125-.245-1.795l4.301-5.598c1.935.399,2.902,1.474,2.902,3.226,0,1.026-.251,1.973-.752,2.842.431,1.396.868,2.793,1.311,4.189.536,1.795.804,3.247.804,4.359,0,1.226-.396,2.273-1.189,3.141h5.964c-.117-.527-.176-1.096-.176-1.71,0-2.977.932-5.328,2.797-7.052,1.69-1.567,3.782-2.351,6.277-2.351h9.983l-3.287,11.112h6.561l3.195-11.112h6.312l-1.975,6.838,5.333-5.342c1.445-1.438,3.013-2.13,4.703-2.073,1.142.057,1.713.798,1.713,2.223,0,.527-.094,1.119-.28,1.773l-2.255,7.693h7.151c-.303,1.254-.973,2.18-2.011,2.778-.734.427-1.521.641-2.36.641h-6.976c-1.597,0-2.395-.641-2.395-1.923,0-.427.081-.926.245-1.496l1.329-4.594-6.015,6.218c-1.41,1.197-2.57,1.795-3.479,1.795h-3.217l.266-.924c-.724.614-1.68.924-2.871.924h-6.626c-1.888,0-2.833-.741-2.833-2.223-1.27,1.767-2.832,2.65-4.685,2.65-1.364,0-2.471-.513-3.322-1.539-.212-.256-.398-.532-.557-.827-.216.341-.503.657-.868.944-.845.663-1.769.994-2.771.994h-13.288c-1.969,0-3.175-.57-3.625-1.706-.252.381-.556.709-.921.979-.653.485-1.346.727-2.081.727h-7.308c-1.714,0-2.57-.669-2.57-2.009-.909,1.34-2.139,2.009-3.689,2.009h-3.077c-.944,0-1.678-.299-2.203-.898-.49-.555-.735-1.289-.735-2.201,0-.513.081-1.04.245-1.582l2.937-9.851h6.346l-3.269,11.112h3.549Zm-30.459-11.112h6.661l1.276,3.419h-5.193c-1.306,0-2.442.278-3.409.834-1.259.726-1.888,1.802-1.888,3.226,0,1.61.869,2.871,2.605,3.783,1.34.698,2.774,1.047,4.301,1.047,1.935,0,3.549-.52,4.843-1.56,1.503-1.196,2.255-2.913,2.255-5.15,0-1.539-.478-3.747-1.434-6.624-.956-2.878-1.434-5.114-1.434-6.71,0-5.2,3.619-7.8,10.857-7.8h4.318c1.189,0,2.249.491,3.182,1.475.967,1.04,1.451,2.272,1.451,3.697,0,1.41-.457,2.615-1.372,3.612-.915.997-2.013,1.496-3.296,1.496s-2.378-.499-3.287-1.496c-.909-.997-1.363-2.202-1.363-3.612,0-.328.047-.755.14-1.282-.524-.057-.856-.086-.996-.086-1.772,0-2.657.905-2.657,2.714,0,.926.521,2.999,1.565,6.219,1.043,3.219,1.565,5.741,1.565,7.564,0,3.904-1.766,6.832-5.297,8.783-2.634,1.438-5.717,2.158-9.249,2.158-3.229,0-6.09-.549-8.584-1.646-3.509-1.539-5.263-3.903-5.263-7.095,0-4.644,3.234-6.966,9.703-6.966Zm-82.356-11.24l-6.521,22.352h6.943c-.117-.527-.176-1.096-.176-1.71,0-2.977.932-5.328,2.797-7.052,1.69-1.567,3.782-2.351,6.277-2.351h9.983l-3.287,11.112h7.241c.149-.411.369-.803.662-1.175l5.193-6.518h-5.945l.962-3.419h14.791l-8.305,11.112h10.336c.025-.274.075-.552.155-.834l3.042-10.278h6.346l-3.269,11.112h3.549l3.217-11.112h6.312l-3.217,11.112h7.221c-.688,2.279-1.975,3.419-3.864,3.419h-4.266c-1.014,3.362-2.081,5.855-3.199,7.479-1.562,2.251-3.503,3.376-5.822,3.376-1.457,0-2.582-.52-3.375-1.56-.688-.912-1.031-2.088-1.031-3.526,0-1.14.201-2.244.603-3.312s.929-1.888,1.582-2.457h-1.329c-.769,0-1.407-.288-1.914-.865-.241-.274-.423-.582-.549-.922-.718,1.19-1.854,1.788-3.411,1.788h-11.417c-2.192,0-3.287-.698-3.287-2.094,0-.257.026-.506.073-.75-.65,1.894-2.019,2.844-4.112,2.844h-6.626c-1.888,0-2.833-.741-2.833-2.223-1.27,1.767-2.832,2.65-4.685,2.65-1.364,0-2.471-.513-3.322-1.539-.396-.478-.696-1.026-.908-1.64-.352.918-.95,1.624-1.802,2.11-.735.427-1.521.641-2.36.641h-6.731c-1.725,0-2.588-.72-2.588-2.158,0-.371.064-.791.192-1.261l6.487-22.352h6.189Zm-38.43-4.296h20.403c2.681,0,4.691.442,6.032,1.325,1.644,1.083,2.465,2.885,2.465,5.406,0,2.094-.903,4.054-2.71,5.876-1.084,1.098-2.733,2.308-4.948,3.633.897,1.895,1.346,3.612,1.346,5.15,0,3.177-1.678,5.528-5.035,7.052-2.402,1.082-5.199,1.624-8.392,1.624h-9.092l6.312-21.924h6.294l-5.368,18.505h.892c2.039,0,3.765-.285,5.175-.855,2.086-.869,3.13-2.287,3.13-4.253,0-.626-.234-1.378-.699-2.254-.467-.876-.699-1.514-.699-1.913,0-.199.011-.342.035-.427.233-.627.868-1.239,1.906-1.837,1.434-.84,2.483-1.616,3.147-2.33,1.119-1.182,1.678-2.55,1.678-4.102,0-2.194-1.37-3.291-4.109-3.291h-20.456l2.693-5.385Z" fill="#151515" stroke-width="0"/>
    <path d="m286.719,151.086c11.436-1.687,22.004-22.18,22.318-34.674-.005-.836-.011-1.671-.114-2.493-.513-4.108-2.617-6.726-6.398-6.168-5.136.758-9.256,6.491-11.249,9.504-2.543,4.141-3.724,10.487-3.224,14.492.218,1.746.772,3.024,1.542,3.644.315.161.452.456.477.661.18,1.439-3.238,3.303-6.147,3.731-1.163.172-2.255.123-3.095-.276-.018.099-.027.187-.044.284.056.141.112.282.131.436.052.41-.007.733-.15,1.173-.088.195-.186.384-.276.578-.037.384-.081.771-.098,1.149-.019.631.044,1.144.121,1.761.527,4.211,3.295,6.626,6.204,6.197Z" fill="#151515" stroke-width="0"/>
    <path d="m419.182,91.797c-.154-1.232-.838-1.969-2.099-1.783-9.692,1.43-19.612,20.781-21.168,34.4,13.476-6.695,24.037-26.455,23.266-32.617Z" fill="#151515" stroke-width="0"/>
    <path d="m409.821,195.962l.263-.015c5.576-.311,11.141-4.422,10.984-11.678-.098-4.547-4.998-16.66-16.9-16.66h-.086s-.086,0-.086,0c-60.643,1.164-121.296,8.646-180.272,22.236-3.049.704-5.039,3.674-4.526,6.772.459,2.747,4.915,5.906,6.205,6.828,1.019.728,2.214,1.109,3.442,1.109.33,0,.661-.028.991-.084,58.589-9.788,120.149-11.019,179.722-8.521l.264.011Zm-5.484-10.855c-59.709-2.499-119.866,1.152-179.188,11.063-.294.049-.573-.15-.622-.444-.047-.283.136-.552.412-.616,58.557-13.494,118.7-20.939,179.162-22.099,7.966.101,8.277,11.648.237,12.096Z" fill="#151515" stroke-width="0"/>
    <path d="m256.419,465.004c-.769,0-1.483.53-2.142,1.592-.659,1.061-.988,2.118-.988,3.173,0,.941.338,1.695,1.014,2.265l2.115-7.03Z" fill="#151515" stroke-width="0"/>
    <path d="m216.52,461.008l2.22-7.693h-3.864l-1.224,4.979c-.07.314-.105.598-.105.855,0,1.239.991,1.859,2.972,1.859Z" fill="#151515" stroke-width="0"/>
    <path d="m361.699,461.008l2.22-7.693h-3.864l-1.224,4.979c-.07.314-.105.598-.105.855,0,1.239.991,1.859,2.972,1.859Z" fill="#151515" stroke-width="0"/>
    <path d="m454.288,245.168c-6.89,13.612-15.293,25.966-25.206,37.063l1.135-18.382.837-13.553.418-6.77-.201-.012-2.228-.138-2.625-.162-4.854-.3-4.854-.3-9.573-.591c.368,5.751.463,13.166.293,22.204-.012.63-.021,1.246-.036,1.892-.079,3.453-.194,6.986-.327,10.557-.157,4.239-.345,8.545-.578,12.951-.127,2.389-.265,4.803-.415,7.242-.009.154-.017.303-.026.457-.122,1.967-.255,3.898-.387,5.831-.174,2.55-.358,5.069-.551,7.561-.384,4.964-.805,9.809-1.262,14.541-.103,1.066-.2,2.15-.307,3.204-.999,9.866-2.072,17.827-3.219,23.881l24.336,1.503,2.49-40.328,9.154-10.718c2.895,7.083,5.165,14.919,6.807,23.512,1.639,8.594,2.714,18.218,3.219,28.874l30.476,1.882-24.691-72.949,31.491-37.143-29.318-1.811Z" fill="#151515" stroke-width="0"/>
    <path d="m197.565,304.255c.265,7.349.425,14.442.498,21.323.033,3.095.051,6.156.045,9.156,0,.23.002.468.002.697-.004,1.33-.014,2.619-.028,3.881-.017,1.585-.044,3.1-.076,4.578-.033,1.523-.073,2.998-.122,4.407-.002.056-.003.116-.005.171-.054,1.541-.12,3.002-.193,4.407-.084,1.613-.18,3.146-.289,4.579-.052.683-.105,1.357-.163,1.999l26.106-.942c-.044-.343-.086-.706-.13-1.057-.18-1.456-.355-2.979-.525-4.579-.15-1.413-.297-2.881-.44-4.407-.005-.058-.011-.113-.016-.171-.132-1.418-.26-2.893-.386-4.407-.123-1.481-.243-3.005-.36-4.578-.11-1.486-.218-3.01-.323-4.578-.195-2.908-.38-5.965-.556-9.156-.372-6.745-.704-14.108-.993-22.118-.873-24.21-.956-42.603-.248-55.177l-26.106.942c.993,6.085,1.861,14.049,2.605,23.898.741,9.848,1.31,20.227,1.703,31.133Z" fill="#151515" stroke-width="0"/>
    <path d="m112.761,347.304l5.448-.315c2.923-.169,5.577-.551,7.972-1.137.963-.236,1.882-.506,2.76-.808.576-.199,1.14-.406,1.679-.634.326-.137.645-.299.964-.461.258-.131.514-.275.768-.423.093-.054.187-.11.279-.167,1.211-.738,2.373-1.667,3.488-2.785.083-.083.166-.161.249-.247,1.07-1.107,2.093-2.395,3.073-3.857.073-.109.147-.211.22-.321.041-.062.083-.118.124-.182.862-1.336,1.622-3.145,2.292-5.375.823-2.741,1.506-6.133,2.038-10.226.341-2.619.588-5.268.752-7.945.3-4.907.307-9.909.012-15.009-.408-7.031-1.409-13.272-3.005-18.724-1.595-5.452-3.739-9.34-6.433-11.667-2.51-2.156-5.806-3.65-9.874-4.496-2.963-.616-6.339-.885-10.129-.805-.82.017-1.653.045-2.512.095-.189.011-.844.068-1.95.171-.108.01-.216.02-.332.031-1.088.102-2.555.241-4.403.418-.107.01-.222.021-.332.032-.829.08-1.724.166-2.7.26-.57.091-1.126.173-1.669.248-.112.015-.217.027-.328.042-.744.099-1.457.181-2.148.25-.724.072-1.429.133-2.094.172l-.9.052-3.015.175-12.337.715-2.282.132-.939.054c.197,1.061.391,2.202.583,3.38.208,1.275.414,2.605.616,4.017.536,3.748,1.051,7.976,1.546,12.688.078.742.154,1.512.231,2.277.051.512.103,1.008.154,1.531.024.246.045.501.069.748.464,4.83.89,9.777,1.276,14.851.057.752.108,1.523.164,2.281.056.757.11,1.518.164,2.281.255,3.608.497,7.255.714,10.984.067,1.163.122,2.297.184,3.448.199,3.688.376,7.325.523,10.897.238,5.768.416,11.401.519,16.869.094,5.001.11,9.52.05,13.563-.038,2.578-.11,4.943-.211,7.131-.054,1.183-.114,2.331-.187,3.4l1.522-.088,3.015-.175,19.805-1.148-.126-2.181-.133-2.292-.133-2.293-.859-14.819-.133-2.296-.114-1.966,2.122-.124,3.905-.227Zm-9.932-67.043l-.017-.299c1.007-.22,1.922-.404,2.757-.558.675-.125,1.299-.23,1.862-.311.114-.017.218-.029.327-.044.61-.082,1.156-.14,1.621-.167,1.041-.06,2-.04,2.895.041.118.011.24.018.356.031,2.336.268,4.156,1.039,5.46,2.313.224.219.424.46.618.708.053.068.115.125.166.195,1.162,1.731,2.084,4.203,2.772,7.401.124.577.242,1.172.351,1.797.432,2.487.743,5.35.931,8.595.117,2.023.16,4.029.159,6.026,0,.299.007.601.004.9-.024,2.581-.141,5.142-.363,7.681-.078.885-.166,1.713-.259,2.513-.026.228-.052.462-.08.683-.111.88-.233,1.696-.363,2.466-.327,1.929-.715,3.519-1.166,4.762-.025.069-.049.148-.074.215-.461,1.074-1.066,2.003-1.792,2.81-1.961,2.179-4.876,3.392-8.767,3.617l-4.405.255-.042-.718-.446-7.704-1.986-34.267-.518-8.94Z" fill="#151515" stroke-width="0"/>
    <path d="m290.993,334.734c-.031,1.539-.068,3.061-.108,4.578-.04,1.539-.085,3.062-.134,4.578-.047,1.475-.093,2.954-.148,4.407-.002.057-.004.115-.006.171-.005.117-.007.238-.012.355-.055,1.391-.114,2.735-.176,4.052-.075,1.585-.156,3.102-.242,4.579-.351,6.032-.79,11.181-1.323,15.403h24.381v-65.368c2.962,5.713,5.888,11.75,8.781,18.088,1.362,2.983,2.715,6.035,4.062,9.156.651,1.51,1.301,3.036,1.948,4.578.372.886.745,1.765,1.115,2.661.27.654.515,1.276.775,1.917.61,1.502,1.193,2.972,1.748,4.407.022.057.044.114.066.171.582,1.506,1.133,2.975,1.655,4.407.572,1.57,1.109,3.097,1.61,4.579,1.962,5.81,3.392,10.962,4.247,15.403h24.383c-.523-4.347-.951-9.492-1.288-15.403-.084-1.48-.164-3.001-.236-4.579-.066-1.426-.125-2.901-.181-4.407-.002-.057-.004-.114-.006-.171-.053-1.433-.102-2.901-.146-4.407-.044-1.493-.085-3.014-.12-4.578-.034-1.495-.065-3.018-.091-4.578-.049-2.934-.084-5.993-.107-9.156-.018-2.589-.029-5.243-.029-7.986,0-24.536.733-42.919,2.205-55.15h-24.383v62.233l-26.008-62.233h-24.381c.771,6.115,1.352,14.106,1.741,23.976.386,9.869.58,20.26.58,31.174,0,2.693-.012,5.355-.036,7.986-.028,3.098-.076,6.143-.136,9.156Z" fill="#151515" stroke-width="0"/>
  </g>
</svg>